<svg  width="16" height="16" viewBox="0 0 16 16" xmlns="http://www.w3.org/2000/svg">
<path d="M4.55378 5.25L5.25689 0H1.6L0.072 4.5C0.0248889 4.66 0 4.826 0 5C0 6.104 1.02222 7 2.28533 7C3.44978 7 4.41244 6.236 4.55378 5.25ZM8 7C9.26222 7 10.2853 6.104 10.2853 5C10.2853 4.959 10.2827 4.918 10.2809 4.879L9.82844 0H6.17156L5.71822 4.875C5.71644 4.916 5.71467 4.957 5.71467 5C5.71467 6.104 6.73778 7 8 7ZM12.4444 8.046V12H3.55556V8.052C3.16622 8.21 2.73778 8.3 2.28533 8.3C2.112 8.3 1.944 8.277 1.77778 8.251V14.6C1.77778 15.37 2.33689 16 3.02044 16H12.9778C13.6622 16 14.2222 15.369 14.2222 14.6V8.252C14.0542 8.28102 13.8846 8.29739 13.7147 8.301C13.2812 8.30051 12.8513 8.21419 12.4444 8.046V8.046ZM15.9289 4.5L14.3991 0H10.7431L11.4453 5.242C11.5822 6.232 12.5449 7 13.7147 7C14.9769 7 16 6.104 16 5C16 4.826 15.9751 4.66 15.9289 4.5Z" fill="#FF8A00"/>
</svg>
