<svg width="20" height="16" viewBox="0 0 20 16" fill="none" xmlns="http://www.w3.org/2000/svg">
<path d="M19.342 5.27217L18.5667 9.28063C18.4711 9.72343 18.0797 9.99267 17.6283 9.99772H6.32596L6.10157 11.1377H16.8734C17.4406 11.1766 17.8254 11.5387 17.8323 12.0019C17.791 12.5121 17.3893 12.8598 16.8734 12.8661H4.95909C4.31472 12.8139 3.9305 12.351 4.00022 11.8364L4.51025 9.33575L3.735 2.31175L1.53168 1.68662C0.993241 1.49394 0.773483 1.05493 0.899237 0.601764C1.10833 0.129476 1.60936 -0.0863067 2.10291 0.0317551L4.91828 0.840804C5.29756 0.968946 5.51575 1.24876 5.57111 1.5763L5.73432 2.97375L18.5055 4.26086C19.0923 4.37542 19.4109 4.79434 19.342 5.27217ZM7.8784 14.6807C7.8784 15.4093 7.22305 16 6.41461 16C5.60618 16 4.95083 15.4093 4.95083 14.6807C4.95083 13.9521 5.60619 13.3614 6.41461 13.3614C7.22303 13.3614 7.8784 13.9521 7.8784 14.6807ZM16.6171 14.6807C16.6171 15.4093 15.9618 16 15.1533 16C14.3449 16 13.6896 15.4093 13.6896 14.6807C13.6896 13.9521 14.3449 13.3614 15.1533 13.3614C15.9618 13.3614 16.6171 13.9521 16.6171 14.6807Z" fill="#FF8A00"/>
<path d="M19.342 5.27217L18.5667 9.28063C18.4711 9.72343 18.0797 9.99267 17.6283 9.99772H6.32596L6.10157 11.1377H16.8734C17.4406 11.1766 17.8254 11.5387 17.8323 12.0019C17.791 12.5121 17.3893 12.8598 16.8734 12.8661H4.95909C4.31472 12.8139 3.9305 12.351 4.00022 11.8364L4.51025 9.33575L3.735 2.31175L1.53168 1.68662C0.993241 1.49394 0.773483 1.05493 0.899237 0.601764C1.10833 0.129476 1.60936 -0.0863067 2.10291 0.0317551L4.91828 0.840804C5.29756 0.968946 5.51575 1.24876 5.57111 1.5763L5.73432 2.97375L18.5055 4.26086C19.0923 4.37542 19.4109 4.79434 19.342 5.27217ZM7.8784 14.6807C7.8784 15.4093 7.22305 16 6.41461 16C5.60618 16 4.95083 15.4093 4.95083 14.6807C4.95083 13.9521 5.60619 13.3614 6.41461 13.3614C7.22303 13.3614 7.8784 13.9521 7.8784 14.6807ZM16.6171 14.6807C16.6171 15.4093 15.9618 16 15.1533 16C14.3449 16 13.6896 15.4093 13.6896 14.6807C13.6896 13.9521 14.3449 13.3614 15.1533 13.3614C15.9618 13.3614 16.6171 13.9521 16.6171 14.6807Z" fill="black"/>
</svg>
