<svg width="16" height="16" viewBox="0 0 16 16" fill="none" xmlns="http://www.w3.org/2000/svg">
<path d="M6.07284 4.73396L6.2746 4.55776C6.77695 4.08118 6.71108 3.85477 6.28218 3.38718L3.99657 0.866424C3.31599 0.114798 3.20457 -0.238574 2.46498 0.404515L2.26321 0.58072L6.07284 4.73396ZM5.56698 5.12942L1.86669 1.09537C1.17737 1.92854 -0.457719 4.1753 0.158427 5.87126C0.714659 7.38595 1.03459 7.46418 1.77902 8.60428C3.31887 10.5343 5.28264 12.6075 6.82058 14.1682C7.90169 15.0086 7.92103 15.3873 9.40487 16.0193C10.9855 16.6893 13.4298 15.2958 14.3552 14.7103L10.6549 10.6762L9.49072 12.1126C9.1557 12.5204 8.4116 12.0377 7.90701 11.4876C7.03301 10.5251 5.2327 8.57207 4.5474 7.75731C4.05122 7.21638 3.62576 6.43367 4.06231 6.12693L5.56698 5.12942ZM14.8941 14.3605L15.0964 14.1753C15.7554 13.5217 15.4133 13.3709 14.7315 12.6373L12.426 10.1432C11.9959 9.69358 11.7861 9.59046 11.2868 10.0221L11.0935 10.2074L14.8941 14.3605Z" fill="black"/>
</svg>
