<svg width="17" height="16" viewBox="0 0 17 16" fill="none" xmlns="http://www.w3.org/2000/svg">
<path d="M1.86006 0C1.47429 0 1.10432 0.210714 0.831544 0.585786C0.558764 0.960859 0.405518 1.46957 0.405518 2V13H1.86006C1.86006 13.7956 2.08993 14.5587 2.4991 15.1213C2.90827 15.6839 3.46323 16 4.04188 16C4.62054 16 5.17549 15.6839 5.58466 15.1213C5.99383 14.5587 6.2237 13.7956 6.2237 13H10.5873C10.5873 13.7956 10.8172 14.5587 11.2264 15.1213C11.6355 15.6839 12.1905 16 12.7692 16C13.3478 16 13.9028 15.6839 14.3119 15.1213C14.7211 14.5587 14.951 13.7956 14.951 13H16.4055V8L14.2237 4H12.0419V0H1.86006ZM6.95097 2L9.86006 6L6.95097 10V7H2.58734V5H6.95097V2ZM12.0419 5.5H13.8601L15.2928 8H12.0419V5.5ZM4.04188 11.5C4.33121 11.5 4.60869 11.658 4.81327 11.9393C5.01786 12.2206 5.13279 12.6022 5.13279 13C5.13279 13.3978 5.01786 13.7794 4.81327 14.0607C4.60869 14.342 4.33121 14.5 4.04188 14.5C3.75255 14.5 3.47508 14.342 3.27049 14.0607C3.06591 13.7794 2.95097 13.3978 2.95097 13C2.95097 12.6022 3.06591 12.2206 3.27049 11.9393C3.47508 11.658 3.75255 11.5 4.04188 11.5ZM12.7692 11.5C13.0585 11.5 13.336 11.658 13.5405 11.9393C13.7451 12.2206 13.8601 12.6022 13.8601 13C13.8601 13.3978 13.7451 13.7794 13.5405 14.0607C13.336 14.342 13.0585 14.5 12.7692 14.5C12.4798 14.5 12.2024 14.342 11.9978 14.0607C11.7932 13.7794 11.6782 13.3978 11.6782 13C11.6782 12.6022 11.7932 12.2206 11.9978 11.9393C12.2024 11.658 12.4798 11.5 12.7692 11.5Z" fill="black"/>
</svg>
