<svg width="17" height="16" viewBox="0 0 17 16" fill="none" xmlns="http://www.w3.org/2000/svg">
<path d="M14.9046 4.00612H2.78537C2.64062 4.03412 2.49147 4.02978 2.34859 3.99341C2.20572 3.95703 2.07266 3.88952 1.95894 3.79572C1.84523 3.70191 1.75367 3.58413 1.69083 3.45081C1.62798 3.31748 1.59541 3.17192 1.59544 3.02454V3.00555L14.4046 2.50676V1.31727C14.4255 1.13979 14.4058 0.959896 14.3469 0.791161C14.2881 0.622427 14.1916 0.469266 14.0649 0.343246C13.9382 0.217225 13.7844 0.121639 13.6153 0.0637055C13.4462 0.00577225 13.2662 -0.0129935 13.0887 0.00882528L1.71544 1.85704C1.33159 1.99868 1.00032 2.25439 0.76615 2.58979C0.531978 2.9252 0.406129 3.32422 0.405518 3.73324L0.405518 14.5006C0.405518 14.8983 0.563543 15.2797 0.84483 15.5608C1.12612 15.842 1.50762 16 1.90542 16H14.9046C15.3024 16 15.6839 15.842 15.9652 15.5608C16.2465 15.2797 16.4045 14.8983 16.4045 14.5006V5.49448L16.4055 5.4535C16.4055 5.0691 16.2528 4.70045 15.9808 4.42863C15.7089 4.15682 15.3401 4.00412 14.9556 4.00412L14.9026 4.00512L14.9046 4.00612ZM13.4047 11.0031C13.0068 11.003 12.6252 10.8449 12.3439 10.5635C12.0626 10.2821 11.9047 9.90056 11.9048 9.50277C11.9049 9.10499 12.0631 8.72354 12.3446 8.44236C12.6261 8.16117 13.0078 8.00328 13.4057 8.00341C13.6027 8.00348 13.7978 8.04234 13.9798 8.11777C14.1619 8.19321 14.3272 8.30374 14.4665 8.44307C14.6058 8.58239 14.7162 8.74777 14.7916 8.92976C14.8669 9.11176 14.9057 9.30681 14.9056 9.50377C14.9055 9.70074 14.8667 9.89576 14.7912 10.0777C14.7157 10.2597 14.6052 10.425 14.4658 10.5642C14.3264 10.7034 14.161 10.8138 13.9789 10.8892C13.7969 10.9645 13.6017 11.0032 13.4047 11.0031Z" fill="black"/>
</svg>
