<svg width="16" height="17" viewBox="0 0 16 17" fill="none" xmlns="http://www.w3.org/2000/svg">
<path d="M13.0016 3.63344L12.605 4.48453C14.0941 5.21901 14.697 6.98179 14.0046 8.5767L14.8319 8.98474C15.8665 6.98294 15.0483 4.5906 13.0016 3.63344ZM12.1687 5.42072L11.772 6.2718C12.2287 6.60174 12.4225 7.16835 12.2673 7.7198L13.0946 8.12785C13.5705 7.10655 13.1829 5.97333 12.1687 5.42072ZM7.82595 0.766628L1.70634 2.98183C1.03319 3.2255 0.676215 3.99147 0.913073 4.684L4.78893 16.0162C5.02579 16.7087 5.77035 17.0759 6.4435 16.8323L12.5631 14.6171C13.2363 14.3734 13.5932 13.6074 13.3564 12.9149L9.48052 1.58272C9.24366 0.890197 8.4991 0.522956 7.82595 0.766628ZM11.9171 12.7284L5.79753 14.9436L2.35232 4.87052L8.47192 2.65532L11.9171 12.7284Z" fill="#FF8A00"/>
<path d="M13.0016 3.63344L12.605 4.48453C14.0941 5.21901 14.697 6.98179 14.0046 8.5767L14.8319 8.98474C15.8665 6.98294 15.0483 4.5906 13.0016 3.63344ZM12.1687 5.42072L11.772 6.2718C12.2287 6.60174 12.4225 7.16835 12.2673 7.7198L13.0946 8.12785C13.5705 7.10655 13.1829 5.97333 12.1687 5.42072ZM7.82595 0.766628L1.70634 2.98183C1.03319 3.2255 0.676215 3.99147 0.913073 4.684L4.78893 16.0162C5.02579 16.7087 5.77035 17.0759 6.4435 16.8323L12.5631 14.6171C13.2363 14.3734 13.5932 13.6074 13.3564 12.9149L9.48052 1.58272C9.24366 0.890197 8.4991 0.522956 7.82595 0.766628ZM11.9171 12.7284L5.79753 14.9436L2.35232 4.87052L8.47192 2.65532L11.9171 12.7284Z" fill="black"/>
</svg>
