<svg width="18" height="16" viewBox="0 0 18 16" fill="none" xmlns="http://www.w3.org/2000/svg">
<path d="M17.2619 5.27217L16.5547 9.28063C16.4674 9.72343 16.1103 9.99267 15.6985 9.99772H5.38767L5.18296 11.1377H15.0099C15.5273 11.1766 15.8783 11.5387 15.8847 12.0019C15.847 12.5121 15.4805 12.8598 15.0099 12.8661H4.1407C3.55286 12.8139 3.20234 12.351 3.26595 11.8364L3.73123 9.33575L3.02399 2.31175L1.01394 1.68662C0.522741 1.49394 0.32226 1.05493 0.436983 0.601764C0.627738 0.129476 1.08482 -0.0863067 1.53507 0.0317551L4.10347 0.840804C4.44948 0.968946 4.64853 1.24876 4.69904 1.5763L4.84793 2.97375L16.4988 4.26086C17.0341 4.37542 17.3247 4.79434 17.2619 5.27217ZM6.80392 14.6807C6.80392 15.4093 6.20607 16 5.46854 16C4.73102 16 4.13317 15.4093 4.13317 14.6807C4.13317 13.9521 4.73104 13.3614 5.46854 13.3614C6.20605 13.3614 6.80392 13.9521 6.80392 14.6807ZM14.7761 14.6807C14.7761 15.4093 14.1782 16 13.4407 16C12.7032 16 12.1053 15.4093 12.1053 14.6807C12.1053 13.9521 12.7032 13.3614 13.4407 13.3614C14.1782 13.3614 14.7761 13.9521 14.7761 14.6807Z" fill="#FF8A00"/>
</svg>
